<svg width="560" height="569" viewBox="0 0 560 569" fill="none" xmlns="http://www.w3.org/2000/svg">
<path fill-rule="evenodd" clip-rule="evenodd" d="M339.412 563.571C465.514 535.839 560 421.651 560 285C560 264.91 557.958 245.306 554.073 226.39L555.393 233.43C554.544 230.005 550.021 226.408 547.023 226L553.993 226H547.022C547.023 226 547.023 226 547.023 226L546 226C546 226 546.001 226 546.001 226H369.638L369.738 226L369.854 226.001L369.908 226.001L370 226.002H369.235C369.358 226.001 369.48 226 369.601 226H332V268.184C332 267.913 332.002 267.645 332.005 267.377V269C332.002 268.728 332 268.457 332 268.188V557C332 562.162 337.31 563.614 339.412 563.571ZM332.005 267.377V226.002H369.235C356.388 226.167 332.393 234.599 332.005 267.377ZM555.5 234L555.393 233.43C555.44 233.621 555.476 233.811 555.5 234ZM280 0C388.08 0 481.857 62.3292 528.529 153.6C529.947 158.52 526 160 526 160H299C280.775 160 266 174.775 266 193V559C266 566.629 259.856 568.739 255.411 568.916C112.287 556.242 0 433.968 0 285C0 127.599 125.36 0 280 0Z" fill="url(#paint0_linear_13_68)"/>
<defs>
<!-- <linearGradient id="paint0_linear_13_68" x1="44" y1="128.5" x2="489.996" y2="470.173" gradientUnits="userSpaceOnUse">
<stop stop-color="#D57CFF"/>
<stop offset="0.659863" stop-color="#9B5AEE"/>
<stop offset="1" stop-color="#9934E9"/>
</linearGradient> -->
</defs>
</svg>
